# Blender 4.3.2
# www.blender.org
mtllib item-coin-silver.mtl
o item-coin-silver
v -0.001927 -0.127745 0.052536
v -0.095265 -0.089083 0.052536
v 0.091411 -0.089083 0.052536
v -0.001927 -0.073625 0.052536
v 0.053143 -0.050815 0.052536
v -0.056997 -0.050815 0.052536
v -0.133927 0.004255 0.052536
v -0.079807 0.004255 0.052536
v 0.130073 0.004255 0.052536
v 0.075954 0.004255 0.052536
v 0.053143 0.059325 0.052536
v -0.095265 0.097593 0.052536
v 0.091411 0.097593 0.052536
v -0.056997 0.059325 0.052536
v -0.001927 0.082135 0.052536
v -0.001927 0.136255 0.052536
v 0.091411 -0.089083 -0.047464
v -0.001927 -0.127745 -0.047464
v 0.091411 0.097593 -0.047464
v -0.001927 0.136255 -0.047464
v -0.095265 -0.089083 -0.047464
v -0.001927 -0.073625 -0.047464
v -0.056997 -0.050815 -0.047464
v 0.053143 -0.050815 -0.047464
v 0.130073 0.004255 -0.047464
v 0.075954 0.004255 -0.047464
v -0.133927 0.004255 -0.047464
v -0.079807 0.004255 -0.047464
v -0.056997 0.059325 -0.047464
v -0.095265 0.097593 -0.047464
v 0.053143 0.059325 -0.047464
v -0.001927 0.082135 -0.047464
v -0.001927 -0.058049 0.027536
v -0.045983 -0.039801 0.027536
v 0.042129 -0.039801 0.027536
v 0.060377 0.004255 0.027536
v -0.064231 0.004255 0.027536
v 0.042129 0.048311 0.027536
v -0.045983 0.048311 0.027536
v -0.001927 0.066559 0.027536
v -0.001927 -0.058049 -0.022464
v 0.042129 -0.039801 -0.022464
v -0.045983 -0.039801 -0.022464
v -0.064231 0.004255 -0.022464
v 0.060377 0.004255 -0.022464
v -0.045983 0.048311 -0.022464
v 0.042129 0.048311 -0.022464
v -0.001927 0.066559 -0.022464
v -0.064231 0.004255 0.027536
v 0.042129 -0.039801 0.027536
v 0.060377 0.004255 0.027536
v 0.053143 -0.050815 0.052536
v 0.075954 0.004255 0.052536
v 0.053143 0.059325 0.052536
v -0.001927 -0.058049 0.027536
v -0.045983 -0.039801 0.027536
v -0.056997 -0.050815 0.052536
v -0.045983 -0.039801 -0.022464
v -0.001927 -0.073625 -0.047464
v -0.056997 -0.050815 -0.047464
v 0.075954 0.004255 -0.047464
v 0.053143 0.059325 -0.047464
v 0.060377 0.004255 -0.022464
v -0.079807 0.004255 -0.047464
v -0.064231 0.004255 -0.022464
v -0.001927 0.082135 -0.047464
v -0.056997 0.059325 -0.047464
v 0.053143 -0.050815 -0.047464
v 0.042129 -0.039801 -0.022464
vn 0.3423 -0.6172 0.7085
vn -0.3145 -0.6825 0.6597
vn 0.3662 -0.6584 0.6576
vn -0.0000 -0.0000 1.0000
vn -0.7056 -0.2587 0.6597
vn 0.4356 -0.1684 0.8842
vn 0.6590 -0.1736 0.7318
vn -0.6303 0.4201 0.6529
vn 0.4319 0.4319 0.7917
vn 0.1883 -0.4411 0.8775
vn 0.4329 -0.1856 0.8821
vn -0.3662 0.6584 0.6576
vn 0.6367 -0.6367 -0.4350
vn 0.3662 -0.6584 -0.6576
vn 0.3287 0.8369 -0.4377
vn 0.3763 0.6533 -0.6569
vn -0.0000 -0.0000 -1.0000
vn 0.6368 -0.2007 -0.7445
vn -0.6418 -0.3987 -0.6551
vn -0.6590 -0.1736 -0.7318
vn -0.3068 0.5923 -0.7450
vn -0.3251 -0.5239 0.7873
vn 0.3096 -0.5464 0.7782
vn 0.1383 -0.6571 0.7410
vn 0.8769 0.2552 0.4074
vn -0.6781 0.1237 0.7245
vn -0.6729 -0.0856 0.7348
vn -0.4679 -0.4679 0.7498
vn -0.5363 0.4153 0.7348
vn -0.0000 0.6640 0.7477
vn -0.3920 0.5669 0.7245
vn -0.0000 0.6617 0.7498
vn 0.4396 0.8005 0.4074
vn 0.3921 0.5669 0.7245
vn 0.7908 0.4067 -0.4575
vn -0.0000 0.6640 -0.7477
vn 0.4679 0.4679 -0.7498
vn -0.6729 0.0856 -0.7348
vn -0.3920 -0.5669 -0.7245
vn -0.6781 -0.1237 -0.7245
vn 0.6781 -0.1236 -0.7245
vn 0.8769 -0.2552 -0.4074
vn -0.0000 -0.6640 -0.7477
vn 0.3346 -0.5099 -0.7925
vn 0.3921 -0.5669 -0.7245
vn -0.5205 -0.4496 -0.7259
vn 0.1591 -0.6332 -0.7575
vn -0.4067 0.7908 -0.4575
vn -0.4679 0.4679 -0.7498
vn -0.0000 0.6617 -0.7498
vt 0.218750 0.054289
vt 0.218750 0.025000
vt 0.218750 0.066000
vt 0.218750 0.083280
vt 0.218750 0.125000
vt 0.218750 0.166719
vt 0.218750 0.195711
vt 0.218750 0.184000
vt 0.218750 0.225000
vt 0.218750 0.066000
vt 0.218750 0.091624
vt 0.218750 0.077800
vt 0.218750 0.158376
vt 0.218750 0.172200
vt 0.218750 0.046716
vt 0.218750 0.075000
vt 0.218750 0.039645
vt 0.218750 0.035000
vt 0.218750 0.103284
vt 0.218750 0.110355
vt 0.218750 0.115000
s 1
usemtl colormap.002
f 3/1/1 2/1/2 1/2/3
f 2/1/2 3/1/1 4/3/4
f 4/3/4 3/1/1 5/4/4
f 6/4/4 2/1/2 4/3/4
f 2/1/2 6/4/4 7/5/5
f 7/5/5 6/4/4 8/5/6
f 5/4/4 3/1/1 9/5/7
f 5/4/4 9/5/7 10/5/4
f 10/5/4 9/5/7 11/6/4
f 7/5/5 8/5/6 12/7/8
f 11/6/4 9/5/7 13/7/9
f 11/6/4 13/7/9 15/8/10
f 12/7/8 14/6/11 15/8/10
f 12/7/8 15/8/10 13/7/9
f 12/7/8 13/7/9 16/9/12
f 1/2/3 17/1/13 3/1/1
f 17/1/13 1/2/3 18/2/14
f 20/9/15 13/7/9 19/7/16
f 24/4/17 17/1/13 22/10/17
f 25/5/18 24/4/17 26/5/17
f 23/4/17 21/1/19 27/5/20
f 23/4/17 27/5/20 28/5/17
f 28/5/17 27/5/20 29/6/17
f 29/6/17 30/7/21 32/8/17
f 19/7/16 31/6/17 32/8/17
f 19/7/16 32/8/17 30/7/21
f 16/9/12 30/7/21 12/7/8
f 9/5/7 19/7/16 13/7/9
f 19/7/16 9/5/7 25/5/18
f 3/1/1 25/5/18 9/5/7
f 25/5/18 3/1/1 17/1/13
f 7/5/5 30/7/21 27/5/20
f 30/7/21 7/5/5 12/7/8
f 35/11/4 34/11/4 33/12/4
f 34/11/4 35/11/4 36/5/4
f 34/11/4 36/5/4 37/5/4
f 37/5/4 36/5/4 38/13/22
f 37/5/4 38/13/22 39/13/23
f 39/13/23 38/13/22 40/14/24
f 43/11/17 42/11/17 41/12/17
f 42/11/17 43/11/17 44/5/17
f 42/11/17 44/5/17 45/5/17
f 39/15/23 8/16/6 49/16/25
f 8/16/6 39/15/23 14/17/11
f 53/16/26 38/15/22 51/16/27
f 38/15/22 53/16/26 54/17/28
f 15/2/10 39/15/23 40/18/24
f 50/19/29 4/5/30 52/20/31
f 4/5/30 50/19/29 55/21/32
f 56/19/33 4/5/30 55/21/32
f 4/5/30 56/19/33 57/20/34
f 57/20/34 49/16/25 8/16/6
f 58/19/35 59/5/36 60/20/37
f 63/16/38 62/17/39 61/16/40
f 58/19/35 64/16/41 65/16/42
f 66/2/43 46/15/44 67/17/45
f 47/15/46 66/2/43 62/17/39
f 66/2/43 47/15/46 48/18/47
f 67/17/45 65/16/42 64/16/41
f 65/16/42 67/17/45 46/15/44
f 59/5/36 69/19/48 68/20/49
f 61/16/40 69/19/48 63/16/38
f 12/7/8 8/5/6 14/6/11
f 13/7/9 20/9/15 16/9/12
f 21/1/19 17/1/13 18/2/14
f 17/1/13 21/1/19 22/10/17
f 22/10/17 21/1/19 23/4/17
f 17/1/13 24/4/17 25/5/18
f 25/5/18 26/5/17 19/7/16
f 29/6/17 27/5/20 30/7/21
f 19/7/16 26/5/17 31/6/17
f 19/7/16 30/7/21 20/9/15
f 2/1/2 18/2/14 1/2/3
f 18/2/14 2/1/2 21/1/19
f 2/1/2 27/5/20 21/1/19
f 27/5/20 2/1/2 7/5/5
f 30/7/21 16/9/12 20/9/15
f 45/5/17 44/5/17 46/13/44
f 45/5/17 46/13/44 47/13/46
f 47/13/46 46/13/44 48/14/47
f 52/20/31 51/16/27 50/19/29
f 51/16/27 52/20/31 53/16/26
f 39/15/23 15/2/10 14/17/11
f 49/16/25 57/20/34 56/19/33
f 15/2/10 38/15/22 54/17/28
f 38/15/22 15/2/10 40/18/24
f 59/5/36 58/19/35 41/21/50
f 62/17/39 63/16/38 47/15/46
f 64/16/41 58/19/35 60/20/37
f 46/15/44 66/2/43 48/18/47
f 69/19/48 59/5/36 41/21/50
f 69/19/48 61/16/40 68/20/49
